/* XPM */
static char * fairv_xpm[] = {
"26 16 9 1",
" 	c None",
".	c #DAE2E0",
"+	c #DAE3E0",
"@	c #D9E3E0",
"#	c #D9E3DF",
"$	c #D9E2E0",
"%	c #D9E2DF",
"&	c #DAE2DF",
"*	c #DAE3DF",
"                          ",
"                          ",
"  ......................  ",
"  .+        @@        #.  ",
"  $@        @@        #.  ",
"  %@        @@        #.  ",
"  .#++++++++&#        #.  ",
"  $.        @@&******&#.  ",
"  .*        @+%*******%.  ",
"  &.........%#        #.  ",
"  .#########.@        #.  ",
"  ..        @@        #.  ",
"  .%        %%        #.  ",
"  ......................  ",
"                          ",
"                          "};
