/* XPM */
static char * fairh_xpm[] = {
"26 16 15 1",
" 	c None",
".	c #D8E1DE",
"+	c #D9E2DF",
"@	c #D8E1DF",
"#	c #DAE3E0",
"$	c #DAE3DF",
"%	c #D9E2DE",
"&	c #DAE2DF",
"*	c #D9E1DE",
"=	c #D8E2DE",
"-	c #D9E3DF",
";	c #D8E2E0",
">	c #D8E1E0",
",	c #D9E2E0",
"'	c #D9E3E0",
"                          ",
"                          ",
"  .++++++@++++++@++++++.  ",
"  ++     ++    ++     ++  ",
"  +#     $      $     #+  ",
"  +#     #      #     #+  ",
"  ++     +      +     ++  ",
"  ++.%%..&*=...*&..%=.++  ",
"  %-;>,,,>;>,&+;>,,,>;'+  ",
"  +'        $-        -+  ",
"  +#        +$        #+  ",
"  +$        &$        '+  ",
"  ++        --        ++  ",
"  @+%++++++%++%+++++++%*  ",
"                          ",
"                          "};
