/* XPM */
static char * max_xpm[] = {
"26 16 10 1",
" 	c None",
".	c #D9E3E0",
"+	c #DAE2E0",
"@	c #DAE3E0",
"#	c #D9E2E0",
"$	c #DAE3DF",
"%	c #DAE2DF",
"&	c #D9E2DF",
"*	c #D9E3DF",
"=	c #DAE3E1",
"                          ",
"                          ",
"  ..+@@@@@@@@@@@@@@@@@#.  ",
"  .+                  @.  ",
"  .$         #        %.  ",
"  .$        &*#       %.  ",
"  .$        @.        %.  ",
"  .$  .#&&&&*@&&&&++  %.  ",
"  .$  +#@@@+@*#@@+.#  %.  ",
"  .$        =.        %.  ",
"  .$        &%%       %.  ",
"  .$        +.        %.  ",
"  .%                  %.  ",
"  ......................  ",
"                          ",
"                          "};
