/* XPM */
static char * tiletop_xpm[] = {
"26 16 9 1",
" 	c None",
".	c #D9E2E0",
"+	c #DAE2E0",
"@	c #DAE3E0",
"#	c #DAE2DF",
"$	c #D9E2DF",
"%	c #D9E3E0",
"&	c #DAE2E1",
"*	c #DAE3DF",
"                          ",
"                          ",
"  .+@@@@@+@@@@@@+@@@@@#.  ",
"  .$     @      @      $  ",
"  .%     @      @      $  ",
"  .%     @      @      $  ",
"  .#     @      @      $  ",
"  .%@@@@@$@@@@@@$.@@@@@.  ",
"  .$$$$$$$$$$$$$$$$$$$..  ",
"  .@                   $  ",
"  .%                   $  ",
"  .%                   $  ",
"  .+                  &$  ",
"  .+******************#.  ",
"                          ",
"                          "};
