/* XPM */
static char * tileleft_xpm[] = {
"26 16 9 1",
" 	c None",
".	c #DAE2E0",
"+	c #D9E2E0",
"@	c #DAE3E0",
"#	c #DAE3DF",
"$	c #D9E2DF",
"%	c #D9E3E0",
"&	c #D9E3DF",
"*	c #DAE2DF",
"                          ",
"                          ",
"  .+++++++++..+++++++++.  ",
"  @#        $$         @  ",
"  @.        %%         @  ",
"  .&&&&&&&&&$%         @  ",
"  +@@@@@@@@@$%         @  ",
"  @#        %%         @  ",
"  .%        %%         @  ",
"  %*########+%         @  ",
"  %$&&&&&&&&.%         @  ",
"  .@        %%         @  ",
"  @$        %%         @  ",
"  .........+**+.........  ",
"                          ",
"                          "};
